<?xml version="1.0" encoding="UTF-8"?>
<svg width="99px" height="41px" viewBox="0 0 99 41" version="1.1" xmlns="http://www.w3.org/2000/svg" xmlns:xlink="http://www.w3.org/1999/xlink">
    <!-- Generator: Sketch 50.2 (55047) - http://www.bohemiancoding.com/sketch -->
    <title>Group 4</title>
    <desc>Created with Sketch.</desc>
    <defs></defs>
    <g id="Page-1" stroke="none" stroke-width="1" fill="none" fill-rule="evenodd">
        <g id="Component2_1" transform="translate(-139.000000, -54.000000)">
            <g id="Group-2" transform="translate(124.000000, 24.000000)">
                <g id="Group-6">
                    <g id="Group-5" transform="translate(15.000000, 30.000000)">
                        <g id="Group-4">
                            <g id="001-volkswagen-car-side-view" transform="translate(49.280000, 20.480000) scale(-1, 1) translate(-49.280000, -20.480000) " fill="#000000" fill-rule="nonzero">
                                <path d="M96.3190857,28.5012114 L93.5753143,28.5012114 C92.8976457,25.0752 91.6906057,20.3898514 89.7733486,17.9062857 C80.8093257,6.28150857 69.5541029,0.0416914286 55.4062629,0.0416914286 C46.2389029,0.0416914286 40.2680686,0.938057143 37.1591314,2.78107429 C36.7394743,3.03030857 35.5018971,3.76283429 32.1590857,10.48576 C27.2791771,10.5623771 14.3711086,11.4477714 8.18157714,18.42432 C5.07483429,21.9247543 3.83945143,25.6872229 3.36292571,28.4990171 L2.06866286,28.4990171 C0.924891429,28.4990171 0,29.4261029 0,30.5695086 C0,31.71072 0.924891429,32.64 2.06829714,32.64 L3.10235429,32.64 C3.11113143,32.7515429 3.11990857,32.8367543 3.12210286,32.8629029 C3.23145143,33.91232 4.12123429,34.7125029 5.17723429,34.7125029 L7.78331429,34.7125029 C9.38368,38.3637943 13.024,40.9261714 17.2609829,40.9261714 C21.4979657,40.9261714 25.1382857,38.3637943 26.74304,34.7125029 L66.2368914,34.7125029 C67.8350629,38.3637943 71.4775771,40.9261714 75.7147429,40.9261714 C79.9519086,40.9261714 83.59424,38.3637943 85.1925943,34.7125029 L92.1713371,34.7125029 C92.1866971,34.7125029 92.19968,34.7125029 92.2106514,34.7125029 C93.3540571,34.7125029 94.2833371,33.7854171 94.2833371,32.6420114 L96.31872,32.6420114 C97.4599314,32.6420114 98.3848229,31.7129143 98.3848229,30.57152 C98.3851886,29.4261029 97.4602971,28.5012114 96.3190857,28.5012114 Z M17.2611657,36.7851886 C13.8373486,36.7851886 11.0498743,33.9999086 11.0498743,30.57152 C11.0498743,27.1433143 13.8351543,24.35584 17.2611657,24.35584 C20.6893714,24.35584 23.47904,27.1434971 23.47904,30.57152 C23.4792229,33.9999086 20.6893714,36.7851886 17.2611657,36.7851886 Z M53.97632,12.69632 C53.97632,13.2692114 53.5149714,13.7325714 52.9400686,13.7325714 L36.8552229,13.7325714 C36.5010286,13.7325714 36.1709714,13.5467886 35.9806171,13.2450743 C35.7882514,12.9411657 35.7706971,12.5628343 35.9281371,12.2437486 C36.6868114,10.6826971 38.06208,7.97824 38.7201829,7.41632 C40.9109943,6.02368 45.3032229,5.36338286 51.8862629,5.36338286 C52.2448457,5.36338286 52.6034286,5.36777143 52.9662171,5.37435429 C53.5259429,5.38752 53.9741257,5.84886857 53.9741257,6.41060571 L53.97632,12.69632 Z M56.0512,12.69632 L56.0512,6.70354286 C56.0512,6.40841143 56.1801143,6.12626286 56.3988114,5.92950857 C56.6197029,5.73275429 56.91264,5.63437714 57.2077714,5.67369143 C64.4970057,6.53074286 70.1026743,8.94226286 72.2126629,12.1234286 C72.4247771,12.4426971 72.4401371,12.8493714 72.2607543,13.1860114 C72.0837486,13.5226514 71.7295543,13.7325714 71.3468343,13.7325714 L57.0832457,13.7325714 C56.5169371,13.7325714 56.0512,13.2690286 56.0512,12.69632 Z M75.7151086,36.7851886 C72.2912914,36.7851886 69.5016229,33.9999086 69.5016229,30.57152 C69.5016229,27.1433143 72.2890971,24.35584 75.7151086,24.35584 C79.14112,24.35584 81.9285943,27.1434971 81.9285943,30.57152 C81.9285943,33.9999086 79.1389257,36.7851886 75.7151086,36.7851886 Z" id="Shape"></path>
                            </g>
                            <g id="Group" transform="translate(75.520000, 24.565714)">
                                <path d="M8.90492255,4.59037522 L7.12834423,4.59037522 L7.12834423,2.8137969 C7.12834423,2.67279862 7.01554561,2.56 6.87454733,2.56 L4.84417212,2.56 C4.70317384,2.56 4.59037522,2.67279862 4.59037522,2.8137969 L4.59037522,4.59037522 L2.8137969,4.59037522 C2.67279862,4.59037522 2.56,4.70317384 2.56,4.84417212 L2.56,6.87454733 C2.56,7.01554561 2.67279862,7.12834423 2.8137969,7.12834423 L4.59037522,7.12834423 L4.59037522,8.90492255 C4.59037522,9.04592083 4.70317384,9.15871945 4.84417212,9.15871945 L6.87454733,9.15871945 C7.01554561,9.15871945 7.12834423,9.04592083 7.12834423,8.90492255 L7.12834423,7.12834423 L8.90492255,7.12834423 C9.04592083,7.12834423 9.15871945,7.01554561 9.15871945,6.87454733 L9.15871945,4.84417212 C9.14461962,4.70317384 9.031821,4.59037522 8.90492255,4.59037522 Z M8.66522547,6.62075043 L8.65112565,6.62075043 L6.87454733,6.62075043 C6.73354905,6.62075043 6.62075043,6.73354905 6.62075043,6.87454733 L6.62075043,8.65112565 L5.09796902,8.65112565 L5.09796902,6.87454733 C5.09796902,6.73354905 4.9851704,6.62075043 4.84417212,6.62075043 L3.0675938,6.62075043 L3.0675938,5.09796902 L4.84417212,5.09796902 C4.9851704,5.09796902 5.09796902,4.9851704 5.09796902,4.84417212 L5.09796902,3.0675938 L6.63485026,3.0675938 L6.63485026,4.84417212 C6.63485026,4.9851704 6.74764888,5.09796902 6.88864716,5.09796902 L8.66522547,5.09796902 L8.66522547,6.62075043 Z" id="Shape" fill="#FFFFFF" fill-rule="nonzero"></path>
                                <circle id="Oval-2" stroke="#FFFFFF" cx="5.85142857" cy="5.85142857" r="5.85142857"></circle>
                            </g>
                            <g id="Group-Copy" transform="translate(17.320007, 24.565714)">
                                <path d="M8.90492255,4.59037522 L7.12834423,4.59037522 L7.12834423,2.8137969 C7.12834423,2.67279862 7.01554561,2.56 6.87454733,2.56 L4.84417212,2.56 C4.70317384,2.56 4.59037522,2.67279862 4.59037522,2.8137969 L4.59037522,4.59037522 L2.8137969,4.59037522 C2.67279862,4.59037522 2.56,4.70317384 2.56,4.84417212 L2.56,6.87454733 C2.56,7.01554561 2.67279862,7.12834423 2.8137969,7.12834423 L4.59037522,7.12834423 L4.59037522,8.90492255 C4.59037522,9.04592083 4.70317384,9.15871945 4.84417212,9.15871945 L6.87454733,9.15871945 C7.01554561,9.15871945 7.12834423,9.04592083 7.12834423,8.90492255 L7.12834423,7.12834423 L8.90492255,7.12834423 C9.04592083,7.12834423 9.15871945,7.01554561 9.15871945,6.87454733 L9.15871945,4.84417212 C9.14461962,4.70317384 9.031821,4.59037522 8.90492255,4.59037522 Z M8.66522547,6.62075043 L8.65112565,6.62075043 L6.87454733,6.62075043 C6.73354905,6.62075043 6.62075043,6.73354905 6.62075043,6.87454733 L6.62075043,8.65112565 L5.09796902,8.65112565 L5.09796902,6.87454733 C5.09796902,6.73354905 4.9851704,6.62075043 4.84417212,6.62075043 L3.0675938,6.62075043 L3.0675938,5.09796902 L4.84417212,5.09796902 C4.9851704,5.09796902 5.09796902,4.9851704 5.09796902,4.84417212 L5.09796902,3.0675938 L6.63485026,3.0675938 L6.63485026,4.84417212 C6.63485026,4.9851704 6.74764888,5.09796902 6.88864716,5.09796902 L8.66522547,5.09796902 L8.66522547,6.62075043 Z" id="Shape" fill="#FFFFFF" fill-rule="nonzero"></path>
                                <circle id="Oval-2" stroke="#FFFFFF" cx="5.85142857" cy="5.85142857" r="5.85142857"></circle>
                            </g>
                            <g id="Group-Copy-2" transform="translate(42.520000, 16.565714)">
                                <path d="M11.946423,6.15823035 L9.56304958,6.15823035 L9.56304958,3.77485688 C9.56304958,3.58570026 9.41172428,3.43437496 9.22256766,3.43437496 L6.49871227,3.43437496 C6.30955565,3.43437496 6.15823035,3.58570026 6.15823035,3.77485688 L6.15823035,6.15823035 L3.77485688,6.15823035 C3.58570026,6.15823035 3.43437496,6.30955565 3.43437496,6.49871227 L3.43437496,9.22256766 C3.43437496,9.41172428 3.58570026,9.56304958 3.77485688,9.56304958 L6.15823035,9.56304958 L6.15823035,11.946423 C6.15823035,12.1355797 6.30955565,12.286905 6.49871227,12.286905 L9.22256766,12.286905 C9.41172428,12.286905 9.56304958,12.1355797 9.56304958,11.946423 L9.56304958,9.56304958 L11.946423,9.56304958 C12.1355797,9.56304958 12.286905,9.41172428 12.286905,9.22256766 L12.286905,6.49871227 C12.2679893,6.30955565 12.116664,6.15823035 11.946423,6.15823035 Z M11.6248568,8.88208574 L11.6059411,8.88208574 L9.22256766,8.88208574 C9.03341103,8.88208574 8.88208574,9.03341103 8.88208574,9.22256766 L8.88208574,11.6059411 L6.83919419,11.6059411 L6.83919419,9.22256766 C6.83919419,9.03341103 6.68786889,8.88208574 6.49871227,8.88208574 L4.11533881,8.88208574 L4.11533881,6.83919419 L6.49871227,6.83919419 C6.68786889,6.83919419 6.83919419,6.68786889 6.83919419,6.49871227 L6.83919419,4.11533881 L8.9010014,4.11533881 L8.9010014,6.49871227 C8.9010014,6.68786889 9.0523267,6.83919419 9.24148332,6.83919419 L11.6248568,6.83919419 L11.6248568,8.88208574 Z" id="Shape" fill="#FFFFFF" fill-rule="nonzero"></path>
                                <circle id="Oval-2" stroke="#FFFFFF" cx="7.8499999" cy="7.8499999" r="7.8499999"></circle>
                            </g>
                        </g>
                    </g>
                </g>
            </g>
        </g>
    </g>
</svg>