<?xml version="1.0" encoding="iso-8859-1"?>
<!-- Generator: Adobe Illustrator 18.0.0, SVG Export Plug-In . SVG Version: 6.00 Build 0)  -->
<!DOCTYPE svg PUBLIC "-//W3C//DTD SVG 1.1//EN" "http://www.w3.org/Graphics/SVG/1.1/DTD/svg11.dtd">
<svg version="1.1" id="Capa_1" xmlns="http://www.w3.org/2000/svg" xmlns:xlink="http://www.w3.org/1999/xlink" x="0px" y="0px"
	 viewBox="0 0 288.055 288.055" style="enable-background:new 0 0 288.055 288.055;" xml:space="preserve">
<g>
	<g>
		<path d="M287.072,236.078c-2.369-8.223-8.688-14.572-16.901-16.983l-4.104-1.205c-0.25-0.073-0.503-0.134-0.759-0.181
			c-1.816-0.333-3.862-0.68-6.113-1.061c-27.354-4.63-84.273-14.264-130.583-69.347c-1.261-1.501-2.511-2.894-3.72-4.24
			c-7.664-8.541-14.285-15.921-15.191-44.589V25.466c0-9.861-8.023-17.885-17.885-17.885h-66.14c-4.94,0-9.708,2.072-13.077,5.685
			c-3.37,3.611-5.107,8.511-4.765,13.442l7.783,111.802c0.882,12.674-1.292,25.547-6.286,37.228l-1.575,3.682
			c-11.988,23.252-9.971,50.868,5.29,72.141c13.188,18.384,34.032,28.916,56.147,28.915c3.569,0,7.174-0.274,10.783-0.835
			l12.585-1.953c12.926-2.007,26.111-2.759,39.189-2.232l102.857,4.139c18.006,0.71,35.189-6.598,47.109-20.058
			c0.01-0.01,0.062-0.067,0.071-0.078C287.468,253.045,289.442,244.306,287.072,236.078z M270.589,249.48
			c-0.01,0.01-0.062,0.067-0.07,0.078c-8.95,10.104-21.842,15.586-35.306,15.046l-102.858-4.139
			c-14.049-0.563-28.21,0.243-42.093,2.398l-12.585,1.953c-20.348,3.163-40.44-5.272-52.442-22.002s-13.549-38.467-4.038-56.728
			c0.087-0.169,0.169-0.341,0.243-0.516l1.685-3.938c5.925-13.858,8.504-29.131,7.457-44.166l-7.782-111.8
			c-0.056-0.797,0.225-1.587,0.769-2.171c0.544-0.583,1.313-0.917,2.109-0.917h66.14c1.591,0,2.885,1.294,2.885,2.885v73.125
			c0,0.077,0.001,0.155,0.004,0.232c1.063,34.24,10.193,44.415,19.023,54.256c1.182,1.316,2.297,2.56,3.402,3.875
			c49.855,59.301,110.443,69.556,139.561,74.483c2.021,0.343,3.871,0.655,5.531,0.956l3.72,1.093
			c3.265,0.959,5.775,3.479,6.716,6.744C273.599,243.496,272.814,246.966,270.589,249.48z"/>
	</g>
	<g>
		<path d="M72.261,222.726c-11.349-4.846-18.626-15.95-18.539-28.289l0.027-3.907c0.028-4.143-3.306-7.523-7.447-7.553
			c-0.019,0-0.036,0-0.054,0c-4.117,0-7.47,3.323-7.499,7.447l-0.027,3.907c-0.129,18.402,10.724,34.963,27.648,42.189
			c0.961,0.41,1.959,0.604,2.941,0.604c2.914,0,5.686-1.708,6.901-4.557C77.84,228.76,76.07,224.352,72.261,222.726z"/>
	</g>
	<g>
		<circle cx="47.225" cy="170.021" r="7.498"/>
	</g>
</g>
<g>
</g>
<g>
</g>
<g>
</g>
<g>
</g>
<g>
</g>
<g>
</g>
<g>
</g>
<g>
</g>
<g>
</g>
<g>
</g>
<g>
</g>
<g>
</g>
<g>
</g>
<g>
</g>
<g>
</g>
</svg>
