<?xml version="1.0" encoding="iso-8859-1"?>
<!-- Generator: Adobe Illustrator 18.0.0, SVG Export Plug-In . SVG Version: 6.00 Build 0)  -->
<!DOCTYPE svg PUBLIC "-//W3C//DTD SVG 1.1//EN" "http://www.w3.org/Graphics/SVG/1.1/DTD/svg11.dtd">
<svg version="1.1" id="Capa_1" xmlns="http://www.w3.org/2000/svg" xmlns:xlink="http://www.w3.org/1999/xlink" x="0px" y="0px"
	 viewBox="0 0 316.196 316.196" style="enable-background:new 0 0 316.196 316.196;" xml:space="preserve">
<g>
	<path d="M285.407,71.087c-3.788-5.731-9.581-9.646-16.313-11.02l-0.007-0.001c-10.022-2.036-19.888,2.076-25.679,9.732
		l1.933-22.706c1.275-14.978-9.138-28.236-23.704-30.185c-7.554-1.012-14.973,1.053-20.902,5.813
		c-3.058,2.454-5.533,5.532-7.29,8.979v-3.608c0-15.043-11.511-27.369-26.205-28.063c-7.617-0.344-14.822,2.333-20.32,7.577
		c-5.499,5.246-8.528,12.321-8.528,19.92v6.729c-1.783-4.178-4.595-7.867-8.26-10.761c-5.772-4.557-12.976-6.593-20.274-5.729
		c-7.303,0.86-13.833,4.513-18.388,10.285c-4.555,5.771-6.59,12.972-5.729,20.274l14.423,122.406l-25.896-26.897
		c-10.433-10.837-27.273-11.735-38.341-2.04c-5.728,5.019-9.06,11.962-9.383,19.552c-0.322,7.593,2.402,14.789,7.672,20.263
		l0.073,0.076c0.352,0.354,35.399,35.75,62.407,62.828c7.955,7.977,12.957,18.524,14.086,29.703
		c2.417,23.933,22.379,41.98,46.434,41.98h49.693c22.305,0,41.573-15.894,45.817-37.791l36.426-187.992
		C290.525,83.682,289.196,76.818,285.407,71.087z M274.439,87.486l-36.44,188.065c-2.88,14.859-15.955,25.645-31.091,25.645h-49.693
		c-16.323,0-29.869-12.247-31.51-28.487c-1.474-14.602-8.005-28.377-18.389-38.789c-26.578-26.646-60.955-61.362-62.329-62.749
		c-2.376-2.487-3.604-5.748-3.457-9.188c0.146-3.453,1.667-6.616,4.28-8.905c4.947-4.331,12.864-3.813,17.649,1.16l33.092,34.37
		c3.974,4.127,10.467,4.687,15.095,1.302c3.342-2.439,5.105-6.595,4.603-10.842L100.637,46.57c-0.392-3.323,0.535-6.601,2.607-9.228
		c2.073-2.627,5.045-4.289,8.37-4.681c3.319-0.389,6.598,0.533,9.224,2.606c2.628,2.073,4.29,5.046,4.682,8.369l7.585,64.373
		c0.337,2.868,1.886,5.468,4.248,7.132c2.36,1.663,5.335,2.244,8.155,1.596c4.568-1.048,7.884-5.279,7.884-10.062v-79.15
		c0-3.458,1.379-6.679,3.883-9.067c2.501-2.385,5.802-3.6,9.259-3.446c6.568,0.311,11.912,6.177,11.912,13.079v79.998
		c0,2.953,1.235,5.806,3.389,7.826c2.151,2.021,5.072,3.059,8.031,2.886c5.258-0.331,9.567-4.622,10.023-9.983l5.592-65.691
		c0.294-3.447,1.943-6.539,4.645-8.708c2.697-2.165,6.074-3.104,9.523-2.644c6.512,0.871,11.333,7.172,10.748,14.046l-6.536,76.779
		c-0.245,2.873,0.711,5.759,2.624,7.918c1.912,2.158,4.666,3.454,7.555,3.557c5.208,0.192,9.712-3.446,10.767-8.628l8.641-42.321
		c1.182-5.786,6.852-9.536,12.655-8.36c2.803,0.574,5.215,2.205,6.792,4.592C274.473,81.746,275.027,84.608,274.439,87.486z"/>
	<path d="M231.379,224.189c-4.092-0.637-7.923,2.181-8.551,6.275l-4.634,30.19l-0.052,0.407c-0.635,6.494-3.088,12.649-7.094,17.798
		c-2.543,3.269-1.954,7.981,1.314,10.525c1.369,1.065,2.99,1.58,4.601,1.58c2.234,0,4.446-0.994,5.925-2.895
		c5.706-7.336,9.218-16.092,10.162-25.335l4.603-29.996C238.284,228.646,235.474,224.817,231.379,224.189z"/>
	<circle cx="234.501" cy="208.889" r="7.5"/>
</g>
<g>
</g>
<g>
</g>
<g>
</g>
<g>
</g>
<g>
</g>
<g>
</g>
<g>
</g>
<g>
</g>
<g>
</g>
<g>
</g>
<g>
</g>
<g>
</g>
<g>
</g>
<g>
</g>
<g>
</g>
</svg>
